# xmcd
#
# Track frame offsets:
#	150
#	13157
#	26696
#	40968
#	55011
#	68766
#	83497
#	98108
#	111679
#	126122
#	140314
#	153883
#	167242
#	179330
#	192448
#	205018
#	218836
#	232663
#	244177
#	258504
#	272688
#	287364
#	301660
#	314140
#	326222
#
# Disc length: 4535 seconds
#
# Revision: 0
# Processed by: cddbd v1.5.2PL0 Copyright (c) Steve Scherf et al.
# Submitted via: EasyCDDAExtractor 10.0.2.1
#
DISCID=6211b519
DTITLE=Wilf Carter (Montana Slim) - Cowboy Songs - CD2
DYEAR=1997
DGENRE=Country
TTITLE0=Awaiting the Chair
TTITLE1=The Life And Death of John Dillinger
TTITLE2=The Cowboy's Guiding Star
TTITLE3=Hobo's Song of the Mounties
TTITLE4=By the Silvery Moonlight Trail
TTITLE5=The Dying Mother's Prayer
TTITLE6=I Long For Old Wyoming
TTITLE7=How My Yodelling Days Began
TTITLE8=I'm Hittin' the Trail
TTITLE9=Lonesome For Baby Tonight
TTITLE10=I'm Gonna Ride to Heaven on a Streamlined Train
TTITLE11=Sundown Blues
TTITLE12=Cowboy Lullaby
TTITLE13=Yodelling Hillbilly
TTITLE14=Two-Gun Cowboy
TTITLE15=Hillbilly Valley
TTITLE16=Returning to My Old Prairie Home
TTITLE17=Pete Knight, The King of the Cowboys
TTITLE18=Cowboy's Mother
TTITLE19=Calgary Roundup
TTITLE20=Trail to Home Sweet Home
TTITLE21=My Blues Have Turned to Sunshine
TTITLE22=Dear Old Daddy of Mine
TTITLE23=My Little Grey Haired Mother in the West
TTITLE24=A Little Log Shack I Can Always Call My Home
EXTD=
EXTT0=
EXTT1=
EXTT2=
EXTT3=
EXTT4=
EXTT5=
EXTT6=
EXTT7=
EXTT8=
EXTT9=
EXTT10=
EXTT11=
EXTT12=
EXTT13=
EXTT14=
EXTT15=
EXTT16=
EXTT17=
EXTT18=
EXTT19=
EXTT20=
EXTT21=
EXTT22=
EXTT23=
EXTT24=
PLAYORDER=
